<?xml version="1.0" encoding="iso-8859-1"?>
<!-- Uploaded to: SVG Repo, www.svgrepo.com, Generator: SVG Repo Mixer Tools -->
<svg fill="#000000" version="1.1" id="Layer_1" xmlns="http://www.w3.org/2000/svg" xmlns:xlink="http://www.w3.org/1999/xlink" 
	 viewBox="0 0 512 512" xml:space="preserve">
<g>
	<g>
		<rect x="149.328" y="319.96" width="213.344" height="16"/>
	</g>
</g>
<g>
	<g>
		<rect x="42.672" y="384.52" width="426.656" height="16"/>
	</g>
</g>
<g>
	<g>
		<path d="M511.888,111.48H394.144H0v128h511.888H512v-128H511.888z M394.144,223.48H16v-96h378.144V223.48z M480.208,206.216
			l-14.176-14.176c-4.544,3.44-10.128,5.568-16.256,5.568c-14.896,0-27.008-12.112-27.008-27.008s12.128-27.008,27.008-27.008
			s27.008,12.128,27.008,27.008c0,5.888-1.936,11.296-5.152,15.728l14.208,14.224L480.208,206.216z"/>
	</g>
</g>
<g>
	<g>
		<circle cx="449.76" cy="170.6" r="19.008"/>
	</g>
</g>
<g>
	<g>
		<rect x="46.621" y="167.474" transform="matrix(0.7071 -0.7071 0.7071 0.7071 -101.4497 106.0268)" width="61.279" height="16"/>
	</g>
</g>
<g>
	<g>
		<rect x="95.497" y="167.494" transform="matrix(0.707 -0.7072 0.7072 0.707 -87.1554 140.6171)" width="61.263" height="16"/>
	</g>
</g>
<g>
	<g>
		<rect x="144.406" y="167.529" transform="matrix(0.7071 -0.7071 0.7071 0.7071 -72.8483 175.1874)" width="61.279" height="16"/>
	</g>
</g>
<g>
	<g>
		<rect x="193.266" y="167.47" transform="matrix(0.7071 -0.7071 0.7071 0.7071 -58.4955 209.7187)" width="61.279" height="16"/>
	</g>
</g>
</svg>