<?xml version="1.0" encoding="iso-8859-1"?>
<!-- Uploaded to: SVG Repo, www.svgrepo.com, Generator: SVG Repo Mixer Tools -->
<svg fill="#000000" height="800px" width="800px" version="1.1" id="Layer_1" xmlns="http://www.w3.org/2000/svg" xmlns:xlink="http://www.w3.org/1999/xlink" 
	 viewBox="0 0 512 512" xml:space="preserve">
<g>
	<g>
		<path d="M144.856,101.6v223.936L333.16,213.568L144.856,101.6z M160.856,129.728l140.992,83.84l-140.992,83.84V129.728z"/>
	</g>
</g>
<g>
	<g>
		<path d="M366.632,356.416c33.248-37.888,53.712-87.888,53.712-142.848C420.344,95.808,327.224,0,212.744,0
			S5.144,95.808,5.144,213.568s93.12,213.568,207.6,213.568c55.376,0,105.648-22.56,142.912-59.056L495.384,512l11.472-11.152
			L366.632,356.416z M212.744,411.136c-105.648,0-191.6-88.624-191.6-197.568S107.096,16,212.744,16s191.6,88.624,191.6,197.568
			S318.392,411.136,212.744,411.136z"/>
	</g>
</g>
</svg>