<?xml version="1.0" encoding="iso-8859-1"?>
<!-- Uploaded to: SVG Repo, www.svgrepo.com, Generator: SVG Repo Mixer Tools -->
<svg fill="#000000" height="800px" width="800px" version="1.1" id="Layer_1" xmlns="http://www.w3.org/2000/svg" xmlns:xlink="http://www.w3.org/1999/xlink" 
	 viewBox="0 0 512 512" xml:space="preserve">
<g>
	<g>
		<path d="M258.038,87.822c-47.049-47.048-123.195-47.053-170.251,0c-46.987,46.987-46.988,123.263,0,170.251
			c47.049,47.048,123.198,47.053,170.251,0C305.027,211.086,305.027,134.81,258.038,87.822z M234.626,234.659
			c-34.107,34.107-89.313,34.111-123.424,0c-34.047-34.048-34.046-89.377,0-123.423c34.11-34.109,89.31-34.112,123.424,0
			C268.673,145.285,268.671,200.614,234.626,234.659z"/>
	</g>
</g>
<g>
	<g>
		<path d="M489.892,383.421L336.209,229.74c20.982-60.641,7.309-130.717-41.031-179.056c-67.574-67.576-176.949-67.581-244.528,0
			c-67.417,67.416-67.417,177.111,0,244.528c48.425,48.426,118.388,62.196,179.132,41.106
			c8.769,8.769,146.227,146.227,153.606,153.606c29.433,29.433,77.068,29.434,106.502,0
			C519.254,460.562,519.254,412.784,489.892,383.421z M74.063,271.799c-54.506-54.507-54.506-143.196,0-197.701
			c54.635-54.635,143.062-54.64,197.701,0c54.557,54.557,54.43,143.275,0,197.701C217.146,326.421,128.707,326.441,74.063,271.799z
			 M320.935,380.643l-59.241-59.242c11.62-6.976,23.178-15.884,33.484-26.19c10.196-10.195,19.092-21.702,26.154-33.521
			l59.278,59.278L320.935,380.643z M360.342,420.051l-15.993-15.993l59.675-59.675l15.993,15.993L360.342,420.051z M466.478,466.511
			c-16.493,16.492-43.182,16.492-59.675,0l-23.047-23.047l59.675-59.675l23.047,23.047
			C482.93,423.288,482.93,450.058,466.478,466.511z"/>
	</g>
</g>
</svg>