<?xml version="1.0" encoding="UTF-8" standalone="no"?>
<!-- Created with Inkscape (http://www.inkscape.org/) -->

<svg
   width="32"
   height="32"
   viewBox="0 0 32 32"
   version="1.1"
   id="svg1"
   inkscape:version="1.3 (0e150ed6c4, 2023-07-21)"
   sodipodi:docname="download.svg"
   xmlns:inkscape="http://www.inkscape.org/namespaces/inkscape"
   xmlns:sodipodi="http://sodipodi.sourceforge.net/DTD/sodipodi-0.dtd"
   xmlns="http://www.w3.org/2000/svg"
   xmlns:svg="http://www.w3.org/2000/svg">
  <sodipodi:namedview
     id="namedview1"
     pagecolor="#ffffff"
     bordercolor="#111111"
     borderopacity="1"
     inkscape:showpageshadow="0"
     inkscape:pageopacity="0"
     inkscape:pagecheckerboard="1"
     inkscape:deskcolor="#d1d1d1"
     inkscape:document-units="px"
     inkscape:zoom="13.987456"
     inkscape:cx="18.302113"
     inkscape:cy="12.546956"
     inkscape:window-width="1600"
     inkscape:window-height="828"
     inkscape:window-x="0"
     inkscape:window-y="0"
     inkscape:window-maximized="1"
     inkscape:current-layer="layer1" />
  <defs
     id="defs1" />
  <g
     inkscape:label="Layer 1"
     inkscape:groupmode="layer"
     id="layer1"
     transform="matrix(1.6492182,0,0,1.3891201,-13.831288,-11.683335)"
     style="fill:#dc143c;fill-opacity:1;stroke-width:0.660679">
    <a
       id="a5"
       transform="matrix(1.0950424,0,0,1.1831115,-1.498514,-2.2494272)"
       style="display:none;fill:#dc143c;fill-opacity:1;stroke-width:0.580448">
      <path
         style="display:inline;fill:#dc143c;fill-opacity:1;stroke:#000000;stroke-width:0;stroke-dasharray:none;stroke-opacity:0"
         d="m 18.482885,9.8901199 c 0,0 -4.73991,-6.8908002 -8.480239,-1.3646511 C 6.2623142,14.051618 17.57907,26.878721 17.57907,26.878721 Z"
         id="path1-5"
         inkscape:label="path1" />
      <path
         style="display:inline;fill:#dc143c;fill-opacity:1;stroke:#000000;stroke-width:0;stroke-dasharray:none;stroke-opacity:0"
         d="m 16.463841,9.9947963 c 0,0 5.007254,-6.8383982 8.958549,-1.3542731 3.951296,5.4841248 -8.003758,18.2136838 -8.003758,18.2136838 z"
         id="path1" />
    </a>
    <rect
       style="fill:#dc143c;fill-opacity:1;stroke:#000000;stroke-width:0;stroke-dasharray:none;stroke-opacity:0"
       id="rect5"
       width="16.180918"
       height="1.8105102"
       x="10.108423"
       y="26.564245"
       ry="0" />
    <rect
       style="fill:#dc143c;fill-opacity:1;stroke:#000000;stroke-width:0;stroke-dasharray:none;stroke-opacity:0"
       id="rect6"
       width="1.7208201"
       height="14.020241"
       x="16.984982"
       y="12.638647"
       ry="0" />
    <path
       id="path6"
       style="fill:#dc143c;fill-opacity:1;stroke:#000000;stroke-width:0;stroke-dasharray:none;stroke-opacity:0"
       d="m 20.054569,21.820673 -2.18908,3.61594 0.567496,1.794445 2.756576,-4.314782 c -0.105545,-0.119419 -0.208873,-0.242052 -0.311888,-0.365201 -0.08999,-0.07413 -0.179269,-0.149481 -0.268506,-0.22393 -0.147639,-0.121488 -0.288313,-0.254864 -0.427967,-0.39075 -0.04042,-0.04237 -0.08368,-0.07838 -0.126631,-0.115722 z" />
    <path
       id="path6-7"
       style="fill:#dc143c;fill-opacity:1;stroke:#000000;stroke-width:0;stroke-dasharray:none;stroke-opacity:0"
       d="m 12.88114,20.526689 c -0.0031,0.0022 -0.0063,0.0038 -0.0094,0.006 l 0.0012,0.003 c 0.0028,-0.003 0.0054,-0.0061 0.0082,-0.009 z m 2.094107,0.739419 c -0.0051,0.0044 -0.01007,0.0091 -0.01524,0.01353 -0.0029,0.0074 -0.0049,0.01506 -0.0082,0.02254 0.009,-0.0095 0.01797,-0.01904 0.02697,-0.02856 z m 0.201672,0.368207 c -0.08669,0.09198 -0.173692,0.182995 -0.260298,0.275028 -0.145142,0.153467 -0.287359,0.312131 -0.430312,0.4689 -0.112389,0.124091 -0.223175,0.250841 -0.334166,0.377224 l 2.715538,4.711544 0.512388,-1.795948 z" />
  </g>
</svg>
