<?xml version="1.0" encoding="iso-8859-1"?>
<!-- Uploaded to: SVG Repo, www.svgrepo.com, Generator: SVG Repo Mixer Tools -->
<svg height="800px" width="800px" version="1.1" id="Layer_1" xmlns="http://www.w3.org/2000/svg" xmlns:xlink="http://www.w3.org/1999/xlink" 
	 viewBox="0 0 512.001 512.001" xml:space="preserve">
<g>
	<polyline style="fill:#F4B2B0;" points="225.989,270.517 121.261,357.109 121.261,359.555 390.741,359.555 390.741,357.109 
		286.012,270.517 	"/>
	<polygon style="fill:#F4B2B0;" points="121.261,152.296 121.261,181.908 256.001,293.315 390.741,181.908 390.741,152.296 	"/>
</g>
<g>
	<path style="fill:#B3404A;" d="M400.173,193.317c3.402-2.813,5.371-6.996,5.371-11.409v-29.612c0-8.176-6.628-14.804-14.804-14.804
		h-269.48c-8.176,0-14.804,6.628-14.804,14.804v2.444v27.168v175.203v0.086v2.358c0,8.176,6.628,14.804,14.804,14.804h269.48
		c8.176,0,14.804-6.628,14.804-14.804v-2.444v-71.523c0-8.176-6.628-14.804-14.804-14.804c-8.176,0-14.804,6.628-14.804,14.804
		v40.075l-67.912-56.152L400.173,193.317z M375.937,174.94l-119.936,99.166L136.065,174.94v-7.84h239.872V174.94z M136.065,213.357
		l67.912,56.152l-67.912,56.152V213.357z M352.56,344.75H159.441l67.767-56.032l19.359,16.007c2.737,2.263,6.084,3.395,9.433,3.395
		c3.349,0,6.696-1.131,9.433-3.395l19.359-16.007L352.56,344.75z"/>
	<path style="fill:#B3404A;" d="M447.165,426.206c41.896-46.927,64.814-106.812,64.814-170.227
		c0-68.374-26.626-132.655-74.974-181.005S324.375,0,256.001,0S123.344,26.626,74.998,74.975
		C26.648,123.323,0.022,187.604,0.022,255.979s26.626,132.655,74.974,181.005c48.762,48.762,114.044,75.018,180.966,75.018
		c24.616,0,49.46-3.553,73.778-10.847c7.831-2.348,12.275-10.601,9.927-18.432c-2.348-7.831-10.598-12.272-18.432-9.927
		c-79.983,23.984-166.316,2.241-225.302-56.747C53.177,373.293,29.63,316.446,29.63,255.98S53.177,138.666,95.933,95.911
		c42.755-42.756,99.601-66.303,160.068-66.303s117.313,23.547,160.068,66.303c42.756,42.755,66.303,99.601,66.303,160.068
		s-23.547,117.313-66.303,160.068c-5.058,5.058-5.691,12.867-1.896,18.614c0.118,0.179,0.258,0.348,0.385,0.523
		c0.454,0.628,0.947,1.235,1.513,1.8l66.558,66.558c2.891,2.891,6.679,4.336,10.468,4.336s7.578-1.445,10.468-4.336
		c5.781-5.781,5.781-15.155,0-20.937L447.165,426.206z"/>
</g>
</svg>