<?xml version="1.0" encoding="iso-8859-1"?>
<!-- Uploaded to: SVG Repo, www.svgrepo.com, Generator: SVG Repo Mixer Tools -->
<svg version="1.1" id="Layer_1" xmlns="http://www.w3.org/2000/svg" xmlns:xlink="http://www.w3.org/1999/xlink" 
	 viewBox="0 0 512.001 512.001" xml:space="preserve">
<rect x="312.616" y="322.642" transform="matrix(0.7071 -0.7071 0.7071 0.7071 -146.7003 334.329)" style="fill:#E21B1B;" width="35.209" height="43.211"/>
<rect x="320.484" y="352.025" transform="matrix(0.7071 -0.7071 0.7071 0.7071 -160.0516 367.2611)" width="85.627" height="49.609"/>
<rect x="381.921" y="375.859" transform="matrix(0.7071 -0.7071 0.7071 0.7071 -185.223 428.5832)" style="fill:#E21B1B;" width="85.627" height="124.033"/>
<circle cx="201.187" cy="188.045" r="188.045"/>
<circle style="fill:#EFEFEF;" cx="201.187" cy="188.045" r="158.443"/>
<g>
	<rect x="258.288" y="152.481" style="fill:#E21B1B;" width="18.525" height="72.816"/>
	<rect x="125.558" y="152.481" style="fill:#E21B1B;" width="18.525" height="72.816"/>
</g>
<rect x="201.048" y="242.413" width="95.173" height="18.525"/>
<rect x="106.142" y="242.413" style="fill:#3F3F3F;" width="95.173" height="18.525"/>
<path d="M198.495,219.187v-7.594c-4.069-0.015-8.053-1.162-11.507-3.313l1.8-5.041c3.229,2.086,6.99,3.197,10.835,3.201
	c5.337,0,8.955-3.081,8.955-7.37c0-4.137-2.937-6.698-8.507-8.955c-7.674-3.009-12.403-6.465-12.403-13.011
	c0.096-6.365,5.017-11.613,11.363-12.115v-7.594h4.657v7.378c3.434,0.026,6.804,0.932,9.787,2.633l-1.888,4.961
	c-2.863-1.708-6.142-2.593-9.475-2.56c-5.802,0-8.002,3.457-8.002,6.465c0,3.913,2.785,5.865,9.331,8.579
	c7.746,3.201,11.659,7.074,11.659,13.764c-0.114,6.675-5.236,12.192-11.883,12.803v7.77h-4.737h0.016V219.187z"/>
<g>
	<rect x="154.272" y="152.481" style="fill:#E21B1B;" width="18.525" height="72.816"/>
	<rect x="229.575" y="152.481" style="fill:#E21B1B;" width="18.525" height="72.816"/>
</g>
<path d="M201.184,76.981v24.23c5.391,0,9.763,4.371,9.763,9.763c0,5.391-4.371,9.763-9.763,9.763v15.525H289.6L201.184,76.981z"/>
<path style="fill:#3F3F3F;" d="M191.422,110.966c0-5.391,4.371-9.763,9.763-9.763V76.981l-88.432,59.272h88.432v-15.492
	c-5.391,0-9.763-4.371-9.763-9.763C191.422,110.987,191.422,110.976,191.422,110.966z"/>
</svg>